<!DOCTYPE svg PUBLIC "-//W3C//DTD SVG 1.1//EN" "http://www.w3.org/Graphics/SVG/1.1/DTD/svg11.dtd">

<!-- Uploaded to: SVG Repo, www.svgrepo.com, Transformed by: SVG Repo Mixer Tools -->
<svg fill="#ffffff" height="800px" width="800px" version="1.1" id="Layer_1" xmlns="http://www.w3.org/2000/svg" xmlns:xlink="http://www.w3.org/1999/xlink" viewBox="0 0 512 512" xml:space="preserve" stroke="#ffffff">

<g id="SVGRepo_bgCarrier" stroke-width="0"/>

<g id="SVGRepo_tracerCarrier" stroke-linecap="round" stroke-linejoin="round"/>

<g id="SVGRepo_iconCarrier"> <g> <g> <g> <path d="M448,90H64c-35.29,0-64,28.71-64,64v204c0,35.29,28.71,64,64,64h384c35.29,0,64-28.71,64-64V154 C512,118.71,483.29,90,448,90z M109.636,390H64c-17.645,0-32-14.355-32-32V154c0-17.645,14.355-32,32-32h45.636V390z M480,358 c0,17.645-14.355,32-32,32H141.636V122H448c17.645,0,32,14.355,32,32V358z"/> <path d="M321.454,132c-68.373,0-124,55.626-124,124s55.626,124,124,124c68.374,0,124-55.626,124-124S389.828,132,321.454,132z M321.454,348c-50.73,0-92-41.27-92-92c0-50.73,41.27-92,92-92c50.73,0,92,41.27,92,92C413.454,306.73,372.183,348,321.454,348z"/> <path d="M321.454,192c-35.29,0-64,28.71-64,64s28.71,64,64,64c35.29,0,64-28.71,64-64C385.454,220.71,356.743,192,321.454,192z M321.454,288c-17.645,0-32-14.355-32-32c0-17.645,14.355-32,32-32c17.645,0,32,14.355,32,32 C353.454,273.645,339.099,288,321.454,288z"/> </g> </g> </g> </g>

</svg>