<!DOCTYPE svg PUBLIC "-//W3C//DTD SVG 1.1//EN" "http://www.w3.org/Graphics/SVG/1.1/DTD/svg11.dtd">
<!-- Uploaded to: SVG Repo, www.svgrepo.com, Transformed by: SVG Repo Mixer Tools -->
<svg fill="#ffffff" height="800px" width="800px" version="1.1" id="Capa_1" xmlns="http://www.w3.org/2000/svg" xmlns:xlink="http://www.w3.org/1999/xlink" viewBox="0 0 491.102 491.102" xml:space="preserve" stroke="#ffffff">
<g id="SVGRepo_bgCarrier" stroke-width="0"/>
<g id="SVGRepo_tracerCarrier" stroke-linecap="round" stroke-linejoin="round"/>
<g id="SVGRepo_iconCarrier"> <g> <g> <path d="M245.251,311.402c-3.2,0-6.3,1.3-8.5,3.5s-3.5,5.3-3.5,8.5s1.3,6.3,3.5,8.5s5.3,3.5,8.5,3.5c3.2,0,6.3-1.3,8.5-3.5 s3.5-5.3,3.5-8.5s-1.3-6.3-3.5-8.5C251.551,312.602,248.451,311.402,245.251,311.402z"/> <path d="M245.251,360.602c-6.6,0-12,5.4-12,12s5.4,12,12,12s12-5.4,12-12S251.851,360.602,245.251,360.602z"/> <path d="M245.251,409.802c-6.6,0-12,5.4-12,12s5.4,12,12,12s12-5.4,12-12S251.851,409.802,245.251,409.802z"/> <path d="M245.251,459.102c-3.2,0-6.3,1.3-8.5,3.5s-3.5,5.3-3.5,8.5s1.3,6.3,3.5,8.5s5.3,3.5,8.5,3.5c3.2,0,6.3-1.3,8.5-3.5 s3.5-5.3,3.5-8.5s-1.3-6.3-3.5-8.5S248.451,459.102,245.251,459.102z"/> <path d="M387.151,59.402c-11.2-21.6-27.4-40.8-47-55.3c-6.3-4.7-14.7-5.4-21.7-1.9s-11.4,10.6-11.4,18.5v63.2 c0,23.3-19,42.3-42.3,42.3h-38.8c-23.3,0-42.3-19-42.3-42.3v-63.1c0-7.9-4.4-15-11.4-18.5c-7-3.6-15.4-2.8-21.7,1.9 c-19.6,14.5-35.9,33.6-47,55.3c-11.5,22.4-17.6,47.6-17.6,72.9c0,50,22.8,96.1,62.5,126.6c12.4,9.5,19.9,24.6,19.9,40.2v179.9 c0,6.6,5.4,12,12,12s12-5.4,12-12v-180c0-23-10.9-45.1-29.2-59.2c-33.7-25.9-53.1-65.1-53.1-107.5c0-40.6,18.5-79.3,49.8-104.9 v56.6c0,36.6,29.7,66.3,66.3,66.3h38.8c36.6,0,66.3-29.7,66.3-66.3v-56.7c31.3,25.6,49.8,64.4,49.8,104.9 c0,42.5-19.3,81.7-53.1,107.5c-18.3,14.1-29.2,36.2-29.2,59.2v179.9c0,6.6,5.4,12,12,12s12-5.4,12-12v-179.8 c0-15.6,7.4-30.6,19.9-40.2c39.7-30.5,62.5-76.6,62.5-126.6C404.751,107.002,398.651,81.802,387.151,59.402z"/> </g> </g> </g>
</svg>