<!DOCTYPE svg PUBLIC "-//W3C//DTD SVG 1.1//EN" "http://www.w3.org/Graphics/SVG/1.1/DTD/svg11.dtd">
<!-- Uploaded to: SVG Repo, www.svgrepo.com, Transformed by: SVG Repo Mixer Tools -->
<svg fill="#ffffff" height="800px" width="800px" version="1.1" id="Layer_1" xmlns="http://www.w3.org/2000/svg" xmlns:xlink="http://www.w3.org/1999/xlink" viewBox="0 0 512 512" xml:space="preserve" stroke="#ffffff">
<g id="SVGRepo_bgCarrier" stroke-width="0"/>
<g id="SVGRepo_tracerCarrier" stroke-linecap="round" stroke-linejoin="round"/>
<g id="SVGRepo_iconCarrier"> <g> <g> <path d="M352.546,242.16l74.923-149.847l-6.03-9.045C419.173,79.868,364.677,0,255.999,0S92.826,79.868,90.561,83.269l-6.03,9.045 l74.923,149.846c-11.682,18.74-34.576,62.062-34.576,113.743c0,39.594,18.799,70.862,31.619,87.582 c-8.708,11.852-19.131,30.142-19.131,49.784V512h237.268v-18.732c0-19.642-10.424-37.932-19.131-49.784 c12.82-16.72,31.619-47.988,31.619-87.582C387.121,304.222,364.227,260.9,352.546,242.16z M144.207,127.898 c29.053,6.279,66.533,9.468,111.792,9.468V99.902c-57.322,0-91.576-5.477-110.216-10.07c-3.579-0.882-6.728-1.766-9.503-2.625 c19.793-19.727,59.753-49.744,119.719-49.744c36.793,0,70.444,11.06,100.021,32.875c12.828,9.463,22.126,19.043,27.77,25.559 l-64.442,128.883H192.65L144.207,127.898z M317.642,456.524c2.888,2.922,8.826,9.945,13.401,18.012H180.954 c4.569-8.062,10.5-15.074,13.363-17.975l13.581-13.473l-13.807-13.24c-0.317-0.31-31.75-31.442-31.75-73.947 c0-42.004,19.401-78.49,28.771-93.659h129.813c9.385,15.099,28.733,51.364,28.733,93.659c0,42.505-31.433,73.637-31.697,73.895 l-13.684,13.201L317.642,456.524z"/> </g> </g> </g>
</svg>